<svg xmlns="http://www.w3.org/2000/svg" viewBox="0 0 70 70" id="1835842334" class="svg u_1835842334" data-icon-name="wp-money_thin"> <g id="1190079797"> 
	<path d="M35,10c-13.8,0-25,11.2-25,25s11.2,25,25,25s25-11.2,25-25S48.8,10,35,10z M35,58.1c-12.7,0-23.1-10.4-23.1-23.1
		S22.3,11.9,35,11.9c12.7,0,23.1,10.4,23.1,23.1S47.7,58.1,35,58.1z" id="1686023875"></path> 
 <path d="M35.3,33.5c-4-1.2-5.3-2-5.3-3.7c0-2.3,2.7-2.8,5-2.8c3.6,0,4.7,2.3,4.8,2.4c0.2,0.5,0.8,0.7,1.3,0.5
		c0.5-0.2,0.7-0.8,0.5-1.3c-0.1-0.1-1.4-3.1-5.6-3.5V23c0-0.6-0.4-1-1-1c-0.6,0-1,0.4-1,1v2c-5.4,0.3-6,3.4-6,4.8
		c0,3.4,3.2,4.6,6.7,5.6C40,36.9,40,39,40,39.7c0,1.6-0.6,3.3-5.3,3.3c-4.1,0-4.7-2.4-4.8-2.5c-0.1-0.5-0.6-0.9-1.2-0.8
		c-0.5,0.1-0.9,0.6-0.8,1.2c0,0.2,0.8,3.8,6,4.1v2c0,0.6,0.4,1,1,1c0.6,0,1-0.4,1-1v-2.1c4.9-0.4,6-3,6-5.3
		C42,36.8,39.8,34.8,35.3,33.5z" id="1868993243"></path> 
</g> 
</svg>