<svg viewBox="0 0 393.8 574.1" xmlns="http://www.w3.org/2000/svg" xmlns:xlink="http://www.w3.org/1999/xlink"><defs><linearGradient id="g" x1=".3" x2=".8" y1=".2" y2="1.5" xlink:href="#a"/><linearGradient id="k" x1=".9" x2=".1" y1="0" y2=".5" xlink:href="#b"/><linearGradient id="h" x1=".6" x2=".5" y1="-.3" y2="1.3" xlink:href="#c"/><linearGradient id="j" x1=".5" x2="1.2" y1="0" y2=".5" xlink:href="#b"/><linearGradient id="i" x1=".7" x2=".1" y1="-.3" y2=".9" xlink:href="#a"/><linearGradient id="f" x1=".7" x2=".8" y1="-.4" y2="1.3" xlink:href="#c"/><linearGradient id="a"><stop stop-color="#ba7f26" offset="0"/><stop stop-color="#e96b10" offset="1"/></linearGradient><linearGradient id="e" x1="1.3" x2=".1" y1=".6" y2="3.8" xlink:href="#a"/><linearGradient id="b"><stop stop-color="#ff9a00" offset="0"/><stop stop-color="#e96b10" offset="1"/></linearGradient><linearGradient id="d" x1="-.1" x2=".6" y1=".5" y2="3.8" xlink:href="#a"/><linearGradient id="c"><stop offset="0"/><stop stop-opacity="0" offset="1"/></linearGradient></defs><g stroke-linecap="round" stroke-linejoin="round"><path d="M355 153a7 7 0 11-13 0 7 7 0 0113 0z" fill="#c7791f"/><g fill="none" stroke="#000"><path d="M56 142S89 33 115 24c27-8 66 93 66 93" stroke-width="10.9"/><path d="M56 142S89 33 115 24c27-8 66 93 66 93" stroke-width="3.5"/></g><g stroke-opacity="0"><g stroke="none"><path d="M210 109L27 137l179 34 4-62z" fill="url(#d)"/><path d="M210 109l-4 62 8 1 145-43-149-20z" fill="url(#e)"/></g><path d="M206 110h5l1 56h-6v-56z" fill="none"/><g stroke="none"><g stroke-width=".8"><path d="M210 117L51 142l75 14 85-13-1-26z" fill="url(#f)"/><path d="M210 109L27 136v1l94 18 91-13-2-33z" fill="url(#g)"/></g><g stroke-width=".9"><path d="M210 112l150 20-8 29-141-18-1-31z" fill="url(#h)"/><path d="M210 109l149 20-7 31-140-18-2-33z" fill="url(#i)"/><path d="M26 137l188 35 23 383-224-55 13-363z" fill="url(#j)"/></g><path d="M359 129l-146 43 24 383 144-79-22-347z" fill="url(#k)"/></g></g><path d="M237 193a7 7 0 11-14 0 7 7 0 0114 0z" fill="#c7791f"/><g fill="none" stroke="#000"><path d="M230 190s22-137 48-145c26-9 70 105 70 105" stroke-width="10.9"/><path d="M230 190s22-137 48-145c26-9 70 105 70 105" stroke-width="3.5"/></g></g></svg>