<svg width="0" height="0" version="1.1" xmlns="http://www.w3.org/2000/svg">
<defs>
    <symbol id="carta"  viewBox="0 0 100 100">
            <path d="M17.8,28.2v43.6h64.4V28.2H17.8z M77.7,30.3L50,48.8L22.3,30.3H77.7z M19.9,69.7V31.2L50,51.2l30.1-20.1v38.5H19.9z" id="1095989397"></path> 
    </symbol>
    <symbol id="dinheiro"  viewBox="0 0 70 70">
            <path d="M35,10c-13.8,0-25,11.2-25,25s11.2,25,25,25s25-11.2,25-25S48.8,10,35,10z M35,58.1c-12.7,0-23.1-10.4-23.1-23.1
            S22.3,11.9,35,11.9c12.7,0,23.1,10.4,23.1,23.1S47.7,58.1,35,58.1z" id="1686023875"></path> 
     <path d="M35.3,33.5c-4-1.2-5.3-2-5.3-3.7c0-2.3,2.7-2.8,5-2.8c3.6,0,4.7,2.3,4.8,2.4c0.2,0.5,0.8,0.7,1.3,0.5
            c0.5-0.2,0.7-0.8,0.5-1.3c-0.1-0.1-1.4-3.1-5.6-3.5V23c0-0.6-0.4-1-1-1c-0.6,0-1,0.4-1,1v2c-5.4,0.3-6,3.4-6,4.8
            c0,3.4,3.2,4.6,6.7,5.6C40,36.9,40,39,40,39.7c0,1.6-0.6,3.3-5.3,3.3c-4.1,0-4.7-2.4-4.8-2.5c-0.1-0.5-0.6-0.9-1.2-0.8
            c-0.5,0.1-0.9,0.6-0.8,1.2c0,0.2,0.8,3.8,6,4.1v2c0,0.6,0.4,1,1,1c0.6,0,1-0.4,1-1v-2.1c4.9-0.4,6-3,6-5.3
            C42,36.8,39.8,34.8,35.3,33.5z" id="1868993243"></path>
    </symbol>
    <symbol id="localizacao" viewBox="0 0 20 20">
        <path d="M10,1.375c-3.17,0-5.75,2.548-5.75,5.682c0,6.685,5.259,11.276,5.483,11.469c0.152,0.132,0.382,0.132,0.534,0c0.224-0.193,5.481-4.784,5.483-11.469C15.75,3.923,13.171,1.375,10,1.375 M10,17.653c-1.064-1.024-4.929-5.127-4.929-10.596c0-2.68,2.212-4.861,4.929-4.861s4.929,2.181,4.929,4.861C14.927,12.518,11.063,16.627,10,17.653 M10,3.839c-1.815,0-3.286,1.47-3.286,3.286s1.47,3.286,3.286,3.286s3.286-1.47,3.286-3.286S11.815,3.839,10,3.839 M10,9.589c-1.359,0-2.464-1.105-2.464-2.464S8.641,4.661,10,4.661s2.464,1.105,2.464,2.464S11.359,9.589,10,9.589"/>    
    </symbol>
    <symbol id="search"   viewBox="0 0 512 512">
        <path d="M505 443L405 343c-4-4-10-7-17-7h-16a208 208 0 1 0-36 36v16c0 7 3 13 7 17l100 100c9 9 24 9 34 0l28-28c9-10 9-25 0-34zM208 336a128 128 0 1 1 0-256 128 128 0 0 1 0 256z0-4.099,1.836-4.099,4.098S7.737,14.732,10,14.732s4.099-1.836,4.099-4.098S12.263,6.536,10,6.536M10,13.871c-1.784,0-3.235-1.453-3.235-3.237S8.216,7.399,10,7.399c1.784,0,3.235,1.452,3.235,3.235S11.784,13.871,10,13.871M17.118,5.672l-3.237,0.014L12.52,3.697c-0.082-0.105-0.209-0.168-0.343-0.168H7.824c-0.134,0-0.261,0.062-0.343,0.168L6.12,5.686H2.882c-0.951,0-1.726,0.748-1.726,1.699v7.362c0,0.951,0.774,1.725,1.726,1.725h14.236c0.951,0,1.726-0.773,1.726-1.725V7.195C18.844,6.244,18.069,5.672,17.118,5.672 M17.98,14.746c0,0.477-0.386,0.861-0.862,0.861H2.882c-0.477,0-0.863-0.385-0.863-0.861V7.384c0-0.477,0.386-0.85,0.863-0.85l3.451,0.014c0.134,0,0.261-0.062,0.343-0.168l1.361-1.989h3.926l1.361,1.989c0.082,0.105,0.209,0.168,0.343,0.168l3.451-0.014c0.477,0,0.862,0.184,0.862,0.661V14.746z"/>    
    </symbol>
    <symbol id="facebook"  viewBox="0 0 448 512">
         <path d="M400 32H48A48 48 0 0 0 0 80v352a48 48 0 0 0 48 48h137.3V327.7h-63V256h63v-54.6c0-62.2 37-96.5 93.6-96.5 27.2 0 55.5 4.8 55.5 4.8v61h-31.2c-30.8 0-40.4 19.1-40.4 38.8V256h68.7l-11 71.7h-57.8V480H400a48 48 0 0 0 48-48V80a48 48 0 0 0-48-48z"/>
    </symbol>
    <symbol id="condominio"   viewBox="0 0 288 512">
       <path d="M209 233l-108-31c-12-4-21-15-21-28 0-17 13-30 30-30h66c12 0 24 4 34 11 6 4 14 3 20-2l34-34c7-7 6-19-1-25-25-19-56-30-87-30V16c0-9-7-16-16-16h-32c-9 0-16 7-16 16v48h-2C46 64-5 119 1 184c4 46 39 83 83 96l103 30c12 4 21 15 21 28 0 17-13 30-29 30h-67c-12 0-24-4-34-10-6-5-14-4-19 2l-35 34c-7 6-6 18 2 24 24 19 55 30 86 30v48c0 9 7 16 16 16h32c9 0 16-7 16-16v-48c47-1 90-29 106-73 21-61-15-125-73-142z"/>
    </symbol>
    <symbol id="instagran"  viewBox="0 0 448 512">
        <path d="M224.1 141c-63.6 0-114.9 51.3-114.9 114.9s51.3 114.9 114.9 114.9S339 319.5 339 255.9 287.7 141 224.1 141zm0 189.6a74.8 74.8 0 1 1 .1-149.3 74.8 74.8 0 0 1-.1 149.3zm146.4-194.3a26.7 26.7 0 1 1-53.6 0 26.8 26.8 0 0 1 53.6 0zm76.1 27.2c-1.7-35.9-9.9-67.7-36.2-93.9-26.2-26.2-58-34.4-93.9-36.2-37-2.1-147.9-2.1-184.9 0-35.8 1.7-67.6 9.9-93.9 36.1s-34.4 58-36.2 93.9c-2.1 37-2.1 147.9 0 184.9 1.7 35.9 9.9 67.7 36.2 93.9s58 34.4 93.9 36.2c37 2.1 147.9 2.1 184.9 0 35.9-1.7 67.7-9.9 93.9-36.2 26.2-26.2 34.4-58 36.2-93.9 2.1-37 2.1-147.8 0-184.8zM398.8 388a75.6 75.6 0 0 1-42.6 42.6c-29.5 11.7-99.5 9-132.1 9s-102.7 2.6-132.1-9A75.6 75.6 0 0 1 49.4 388c-11.7-29.5-9-99.5-9-132.1s-2.6-102.7 9-132.1A75.6 75.6 0 0 1 92 81.2c29.5-11.7 99.5-9 132.1-9s102.7-2.6 132.1 9a75.6 75.6 0 0 1 42.6 42.6c11.7 29.5 9 99.5 9 132.1s2.7 102.7-9 132.1z"/>
    </symbol>
    <symbol id="telefone"  viewBox="0 0 448 512">
         <path  d="M400 32H48A48 48 0 0 0 0 80v352a48 48 0 0 0 48 48h352a48 48 0 0 0 48-48V80a48 48 0 0 0-48-48zm-16 307l-15 65a15 15 0 0 1-15 12A290 290 0 0 1 64 126a16 16 0 0 1 12-15l65-15a18 18 0 0 1 3 0 16 16 0 0 1 14 9l30 70a18 18 0 0 1 1 6 17 17 0 0 1-5 12l-38 31a232 232 0 0 0 110 110l31-38a17 17 0 0 1 12-5 18 18 0 0 1 6 1l70 30a16 16 0 0 1 9 14 17 17 0 0 1 0 3z"/>
    </symbol>
    <symbol id="whatshap"   viewBox="0 0 448 512">
          <path  d="M381 97A222 222 0 0 0 32 365L0 480l118-31a224 224 0 0 0 330-195c0-59-25-115-67-157zM224 439c-33 0-66-9-94-26l-7-4-70 18 19-68-4-7a185 185 0 0 1 287-229c34 35 56 82 55 131 1 102-84 185-186 185zm101-138c-5-3-33-17-38-18-5-2-9-3-12 2l-18 22c-3 4-6 4-12 2-33-17-54-30-75-66-6-10 5-10 16-31 2-3 1-7-1-9l-17-42c-4-10-9-9-12-9h-11c-4 0-10 1-15 7-5 5-19 19-19 46s20 54 23 57c2 4 39 60 94 84 36 15 49 17 67 14 11-2 33-13 37-26 5-13 5-25 4-27-2-2-5-4-11-6z"/>
    </symbol>

    <symbol id="avatar" viewBox="0 0 70 70">
            <path d="M60,60H10v-1c0-2.6,0.5-10.1,3-12.7c1.9-2,9.5-7.3,22.1-7.3c12.5,0,20.2,5.3,22.1,7.3c2.4,2.6,3,10,3,12.7V60z M12,58H58
            c-0.1-3.6-0.9-8.7-2.4-10.3C55.5,47.6,49,41,35,41c-14,0-20.5,6.6-20.6,6.7C12.9,49.3,12.1,54.4,12,58z" id="1757744528"></path> 
     <path d="M35,36c-7.2,0-13-5.8-13-13s5.8-13,13-13s13,5.8,13,13S42.2,36,35,36z M35,12c-6.1,0-11,4.9-11,11s4.9,11,11,11
            c6.1,0,11-4.9,11-11S41.1,12,35,12z" id="1801310850"></path> 
    </symbol>

    <symbol id="seta-top"   viewBox="0 0 70 70">
            <polygon points="17.4,45.7 15.1,43.3 35,24.3 54.9,43.3 52.6,45.7 35,28.8 " id="1043127631"></polygon> 
      </symbol>
      <symbol id="seta-bottom"   viewBox="0 0 70 70">
            <polygon points="35,45.7 15.1,26.7 17.4,24.3 35,41.2 52.6,24.3 54.9,26.7 " id="1631424488"></polygon> 

      </symbol>
      <symbol id="seta-left"   viewBox="0 0 70 70">
            <polygon points="43.8,54.9 23.9,35 43.8,15.1 46.1,17.4 28.5,35 46.1,52.6 " id="1107970444"></polygon> 
      </symbol>
      <symbol id="seta-right"   viewBox="0 0 70 70">
            <polygon points="26.2,54.9 23.9,52.6 41.5,35 23.9,17.4 26.2,15.1 46.1,35 " id="1560916990"></polygon> 
      </symbol>
      <symbol id="horario"  viewBox="0 0 510 510" >
      <path style="fill-opacity:0.9;" d="M255,0C114.75,0,0,114.75,0,255s114.75,255,255,255s255-114.75,255-255S395.25,0,255,0z     M255,459c-112.2,0-204-91.8-204-204S142.8,51,255,51s204,91.8,204,204S367.2,459,255,459z"/>
		<polygon style="fill-opacity:0.9;" points="267.75,127.5 229.5,127.5 229.5,280.5 362.1,362.1 382.5,328.95 267.75,260.1   "/>
      </symbol>
      <symbol id="delete"  viewBox="0 0 91 91" >
            <path d="M67.305,36.442v-8.055c0-0.939-0.762-1.701-1.7-1.701H54.342v-5.524c0-0.938-0.761-1.7-1.699-1.7h-12.75   c-0.939,0-1.701,0.762-1.701,1.7v5.524H26.93c-0.939,0-1.7,0.762-1.7,1.701v8.055c0,0.938,0.761,1.699,1.7,1.699h0.488v34.021   c0,0.938,0.761,1.7,1.699,1.7h29.481c3.595,0,6.52-2.924,6.52-6.518V38.142h0.486C66.543,38.142,67.305,37.381,67.305,36.442z    M41.592,22.862h9.35v3.824h-9.35V22.862z M61.719,67.345c0,1.719-1.4,3.117-3.12,3.117h-27.78v-32.32l30.9,0.002V67.345z    M63.904,34.742H28.629v-4.655h11.264h12.75h11.262V34.742z"/>
     </symbol>
     <symbol id="forma-de-pagamento-dinheiro"  viewBox="0 0 30 30" >
            <path d="M5.5 5c-.655 0-.66 1.01 0 1h22c.286 0 .5.214.5.5v13c0 .66 1 .66 1 0v-13c0-.822-.678-1.5-1.5-1.5h-22zm-2 2c-.654 0-.654 1 0 1h22c.286 0 .5.214.5.5v13c0 .665 1.01.66 1 0v-13c0-.822-.678-1.5-1.5-1.5h-22zm-2 2C.678 9 0 9.678 0 10.5v12c0 .822.678 1.5 1.5 1.5h22c.822 0 1.5-.678 1.5-1.5v-12c0-.822-.678-1.5-1.5-1.5h-22zm0 1h22c.286 0 .5.214.5.5v12c0 .286-.214.5-.5.5h-22c-.286 0-.5-.214-.5-.5v-12c0-.286.214-.5.5-.5zm1 1c-.276 0-.5.224-.5.5v2c0 .672 1 .656 1 0V12h1.5c.672 0 .656-1 0-1h-2zm10 0C9.468 11 7 13.468 7 16.5S9.468 22 12.5 22s5.5-2.468 5.5-5.5-2.468-5.5-5.5-5.5zm8 0c-.656 0-.672 1 0 1H22v1.5c0 .656 1 .672 1 0v-2c0-.276-.224-.5-.5-.5h-2zm-8 1c2.49 0 4.5 2.01 4.5 4.5S14.99 21 12.5 21 8 18.99 8 16.5s2.01-4.5 4.5-4.5zm0 1c-.277 0-.5.223-.5.5v.594c-.578.21-1 .76-1 1.406 0 .82.68 1.5 1.5 1.5.28 0 .5.212.5.5 0 .288-.22.5-.5.5h-1c-.338-.005-.5.248-.5.5s.162.505.5.5h.5v.5c0 .277.223.5.5.5s.5-.223.5-.5v-.594c.578-.21 1-.76 1-1.406 0-.82-.68-1.5-1.5-1.5-.28 0-.5-.212-.5-.5 0-.288.22-.5.5-.5h1c.338.005.5-.248.5-.5s-.162-.505-.5-.5H13v-.5c0-.277-.223-.5-.5-.5zm-10 6.002c-.25-.002-.5.162-.5.498v2c0 .276.224.5.5.5h2c.656 0 .672-1 0-1H3v-1.5c0-.328-.25-.496-.5-.498zm20 0c-.25.002-.5.17-.5.498V21h-1.5c-.672 0-.656 1 0 1h2c.276 0 .5-.224.5-.5v-2c0-.336-.25-.5-.5-.498z"/>
     </symbol>     
     <symbol id="cartao-de-credito" viewBox="0 0 128 128">
      <path d="M109,105.2H19c-8.3,0-15-6.7-15-15V37.8c0-8.3,6.7-15,15-15h90c8.3,0,15,6.7,15,15v52.5  C124,98.5,117.3,105.2,109,105.2z" fill="#FFFFFF"/>
	<polyline fill="#938993" points="124,51.2 124,37.8 4,37.8 4,51.2 124,51.2   "/>
	<path d="M109,106.5H19c-9,0-16.2-7.3-16.2-16.2V37.8c0-9,7.3-16.2,16.2-16.2h90c9,0,16.2,7.3,16.2,16.2v52.5    C125.2,99.2,118,106.5,109,106.5z M19,24c-7.6,0-13.8,6.2-13.8,13.8v52.5c0,7.6,6.2,13.8,13.8,13.8h90c7.6,0,13.8-6.2,13.8-13.8    V37.8c0-7.6-6.2-13.8-13.8-13.8H19z" fill="#62355C"/>
	<path d="M124,66H4c-0.7,0-1.2-0.6-1.2-1.2s0.6-1.2,1.2-1.2h120c0.7,0,1.2,0.6,1.2,1.2S124.7,66,124,66z" fill="#62355C"/>
	<path d="M67,59.2H11.5c-0.7,0-1.2-0.6-1.2-1.2s0.6-1.2,1.2-1.2H67c0.7,0,1.2,0.6,1.2,1.2S67.7,59.2,67,59.2z" fill="#62355C"/>
	<path d="M98.5,59.2h-15c-0.7,0-1.2-0.6-1.2-1.2s0.6-1.2,1.2-1.2h15c0.7,0,1.2,0.6,1.2,1.2S99.2,59.2,98.5,59.2z" fill="#62355C"/>
	<path d="M58,78H22c-0.7,0-1.2-0.6-1.2-1.2s0.6-1.2,1.2-1.2h36c0.7,0,1.2,0.6,1.2,1.2S58.7,78,58,78z" fill="#62355C"/>
	<path d="M58,85.5H22c-0.7,0-1.2-0.6-1.2-1.2S21.3,83,22,83h36c0.7,0,1.2,0.6,1.2,1.2S58.7,85.5,58,85.5z" fill="#62355C"/>
	<path d="M58,93H22c-0.7,0-1.2-0.6-1.2-1.2s0.6-1.2,1.2-1.2h36c0.7,0,1.2,0.6,1.2,1.2S58.7,93,58,93z" fill="#62355C"/>
	<path d="M124,52.5H4c-0.7,0-1.2-0.6-1.2-1.2S3.3,50,4,50h120c0.7,0,1.2,0.6,1.2,1.2S124.7,52.5,124,52.5z" fill="#62355C"/>
	<path d="M124,52.5H4c-0.7,0-1.2-0.6-1.2-1.2S3.3,50,4,50h120c0.7,0,1.2,0.6,1.2,1.2S124.7,52.5,124,52.5z" fill="#62355C"/>
	<path d="M124,39H4c-0.7,0-1.2-0.6-1.2-1.2s0.6-1.2,1.2-1.2h120c0.7,0,1.2,0.6,1.2,1.2S124.7,39,124,39z" fill="#62355C"/>
	<path d="    M124,51.2" fill="none" stroke="#373636" stroke-linecap="round" stroke-linejoin="round" stroke-miterlimit="10" stroke-width="2.5"/>
	<circle cx="104.5" cy="84.2" fill="#FEE444" r="11.2"/>
    <path d="M104.5,96.8c-6.9,0-12.5-5.6-12.5-12.5s5.6-12.5,12.5-12.5S117,77.4,117,84.2S111.4,96.8,104.5,96.8z M104.5,74.2c-5.5,0-10,4.5-10,10s4.5,10,10,10s10-4.5,10-10S110,74.2,104.5,74.2z" fill="#62355C"/>
    <circle cx="88" cy="84.2" fill="#EC7BB0" r="11.2"/>
    <path d="M88,96.8c-6.9,0-12.5-5.6-12.5-12.5S81.1,71.8,88,71.8s12.5,5.6,12.5,12.5S94.9,96.8,88,96.8z M88,74.2 c-5.5,0-10,4.5-10,10s4.5,10,10,10s10-4.5,10-10S93.5,74.2,88,74.2z" fill="#62355C"/>
     </symbol>
</defs>
</svg>  